<?xml version="1.0" encoding="UTF-8"?>
<!DOCTYPE svg PUBLIC "-//W3C//DTD SVG 1.1//EN" "http://www.w3.org/Graphics/SVG/1.1/DTD/svg11.dtd">
<!-- Creator: CorelDRAW X8 -->
<svg xmlns="http://www.w3.org/2000/svg" xml:space="preserve" width="210mm" height="297mm" version="1.1" style="shape-rendering:geometricPrecision; text-rendering:geometricPrecision; image-rendering:optimizeQuality; fill-rule:evenodd; clip-rule:evenodd"
viewBox="0 0 21000 29700"
 xmlns:xlink="http://www.w3.org/1999/xlink">
 <defs>
  <style type="text/css">
   <![CDATA[
    .str0 {stroke:#373435;stroke-width:20}
    .fil2 {fill:none}
    .fil1 {fill:#00AFEF}
    .fil0 {fill:#00A859;fill-rule:nonzero}
   ]]>
  </style>
 </defs>
 <g id="Layer_x0020_1">
  <metadata id="CorelCorpID_0Corel-Layer"/>
  <path class="fil0" d="M797 23010c-1027,-3494 -1244,-5707 333,-8766l1977 0c544,7612 1331,6029 2833,8532 -614,-5333 -637,-6037 1657,-8671 1414,-1623 3436,-1588 3516,-885l-474 1024c-1238,3490 -1199,6808 0,9968l-1609 -1289c-1531,-3066 -1593,-4634 342,-7051 -2400,-939 -3758,1239 -3037,7091l-1061 1249c-1949,-2021 -3312,-4521 -2877,-8493 -759,1531 -757,4364 0,8493 -422,0 -1177,-1202 -1600,-1202z"/>
  <path class="fil0" d="M9819 24258c-2379,-3041 -1176,-7454 707,-11382 -2245,110 81,-504 1625,941 325,44 1185,1920 1000,2699 -506,2136 -775,3235 -659,3780 529,2490 2630,2602 2127,2494 -85,-4652 -101,-6122 2877,-8551l1766 -12c-1902,3210 -2383,5067 -603,8493l-598 1484c-1486,-3055 -2037,-5935 -55,-8340 -1963,764 -2626,4127 -2855,8359l-1188 7c-2344,-2043 -3622,-4696 -2933,-8473 -1367,2201 -1373,3751 -357,7035l-854 1466z"/>
  <path class="fil1" d="M13403 15672c143,-177 270,-371 377,-583 781,-1552 187,-3427 -1327,-4190 -1514,-762 -3375,-121 -4156,1431 -106,211 -187,429 -244,649 906,-1117 2240,-1610 3548,-952 1307,658 2160,2252 1802,3645z"/>
  <ellipse class="fil2 str0" cx="-5911" cy="3333" rx="2073" ry="2125"/>
  <path class="fil1" d="M16108 15448c242,-320 456,-674 633,-1061 1304,-2831 214,-6304 -2436,-7756 -2650,-1452 -5855,-334 -7159,2498 -178,387 -311,785 -401,1188 1534,-2028 4236,-2691 6524,-1437 2289,1254 3414,4014 2839,6568z"/>
  <path class="fil1" d="M19523 12850c320,-424 603,-892 838,-1403 1724,-3744 282,-8336 -3222,-10256 -3503,-1920 -7741,-441 -9465,3304 -236,510 -412,1037 -532,1570 2029,-2681 5602,-3558 8628,-1900 3025,1658 4513,5308 3753,8685z"/>
 </g>
</svg>
